<?xml version="1.0" encoding="utf-8"?>
<!-- Generator: Adobe Illustrator 25.2.3, SVG Export Plug-In . SVG Version: 6.00 Build 0)  -->
<svg version="1.1" id="Layer_1" xmlns="http://www.w3.org/2000/svg" xmlns:xlink="http://www.w3.org/1999/xlink" x="0px" y="0px"
	 width="26px" height="26px" viewBox="0 0 26 26" style="enable-background:new 0 0 26 26;" xml:space="preserve">
<style type="text/css">
	.st0{fill-rule:evenodd;clip-rule:evenodd;fill:#4A4AF4;}
</style>
<path class="st0" d="M13,26L13,26L13,26L13,26z M13,26L13,26L13,26L13,26z M12.9,26L12.9,26L12.9,26L12.9,26z M13.1,26L13.1,26
	L13.1,26L13.1,26z M12.9,26L12.9,26L12.9,26L12.9,26z M13.1,26L13.1,26L13.1,26L13.1,26z M13.2,26L13.2,26L13.2,26L13.2,26z
	 M12.8,26L12.8,26L12.8,26L12.8,26z M13.2,26L13.2,26L13.2,26L13.2,26z M12.8,26L12.8,26L12.8,26L12.8,26z M13.3,26L13.3,26L13.3,26
	L13.3,26z M12.7,26L12.7,26L12.7,26L12.7,26z M12.7,26L12.7,26L12.7,26L12.7,26z M13.3,26L13.3,26L13.3,26L13.3,26z M12.7,26
	L12.7,26L12.7,26L12.7,26z M13.3,26L13.3,26L13.3,26L13.3,26z M13.4,26L13.4,26L13.4,26L13.4,26z M12.6,26L12.6,26L12.6,26L12.6,26z
	 M13.5,26L13.5,26L13.5,26L13.5,26z M12.5,26L12.5,26L12.5,26L12.5,26z M12.5,26L12.5,26L12.5,26L12.5,26z M13.5,26L13.5,26L13.5,26
	L13.5,26z M12.5,26L12.5,26L12.5,26L12.5,26z M13.5,26L13.5,26L13.5,26L13.5,26z M12.4,26L12.4,26L12.4,26L12.4,26z M13.6,26
	L13.6,26L13.6,26L13.6,26z M12.4,26L12.4,26L12.4,26L12.4,26z M13.6,26L13.6,26L13.6,26L13.6,26z M12.3,26L12.3,26L12.3,26L12.3,26z
	 M13.7,26L13.7,26L13.7,26L13.7,26z M13.7,26L13.7,26L13.7,26L13.7,26L13.7,26z M12.3,26L12.3,26L12.3,26L12.3,26L12.3,26z M13.8,26
	L13.8,26L13.8,26L13.8,26z M12.2,26L12.2,26L12.2,26L12.2,26z M12.2,26L12.2,26L12.2,26L12.2,26z M13.8,26L13.8,26L13.8,26L13.8,26z
	 M12.2,26L12.2,26L12.2,26L12.2,26L12.2,26z M13.8,26L13.8,26L13.8,26L13.8,26L13.8,26z M13.9,26L13.9,26L13.9,26L13.9,26z M12.1,26
	L12.1,26L12.1,26L12.1,26z M12.1,26L12.1,26L12.1,26L12.1,26z M13.9,26L13.9,26L13.9,26L13.9,26z M12,26L12,26L12,26L12,26z M14,26
	L14,26L14,26L14,26z M12,26L12,26L12,26L12,26z M14,26L14,26L14,26L14,26z M14,26L14,26L14,26L14,26z M12,26L12,26L12,26L12,26z
	 M11.9,26L11.9,26L11.9,26L11.9,26z M14.1,26L14.1,26L14.1,26L14.1,26z M14.2,25.9L14.2,25.9L14.2,25.9L14.2,25.9z M11.8,25.9
	L11.8,25.9L11.8,25.9L11.8,25.9z M11.8,25.9L11.8,25.9L11.8,25.9L11.8,25.9z M14.2,25.9L14.2,25.9L14.2,25.9L14.2,25.9z M11,25.8
	C4.8,24.9,0,19.5,0,13C0,5.8,5.8,0,13,0c7.2,0,13,5.8,13,13c0,6.5-4.8,11.9-11,12.8v-9.1h3l0.6-3.8H15v-2.4c0-1,0.5-2,2.1-2h1.6V5.3
	c0,0-1.5-0.3-2.9-0.3c-3,0-4.9,1.8-4.9,5.1V13H7.7v3.8H11V25.8z"/>
</svg>
