<?xml version="1.0" encoding="utf-8"?>
<!-- Generator: Adobe Illustrator 25.2.3, SVG Export Plug-In . SVG Version: 6.00 Build 0)  -->
<svg version="1.1" id="Layer_1" xmlns="http://www.w3.org/2000/svg" xmlns:xlink="http://www.w3.org/1999/xlink" x="0px" y="0px"
	 width="26px" height="26px" viewBox="0 0 26 26" style="enable-background:new 0 0 26 26;" xml:space="preserve">
<style type="text/css">
	.st0{fill-rule:evenodd;clip-rule:evenodd;fill:#4A4AF4;}
</style>
<path class="st0" d="M26,13c0,7.2-5.8,13-13,13S0,20.2,0,13S5.8,0,13,0S26,5.8,26,13z M9.7,5c0.9,0,1.1,0,3.3,0s2.4,0,3.3,0
	c0.9,0,1.4,0.2,1.9,0.4c0.5,0.2,1,0.5,1.4,0.9c0.4,0.4,0.7,0.9,0.9,1.4c0.2,0.5,0.3,1.1,0.4,1.9c0,0.9,0,1.1,0,3.3s0,2.4,0,3.3
	c0,0.9-0.2,1.4-0.4,1.9c-0.2,0.5-0.5,1-0.9,1.4c-0.4,0.4-0.9,0.7-1.4,0.9c-0.5,0.2-1.1,0.3-1.9,0.4c-0.9,0-1.1,0-3.3,0s-2.4,0-3.3,0
	c-0.9,0-1.4-0.2-1.9-0.4c-0.5-0.2-1-0.5-1.4-0.9c-0.4-0.4-0.7-0.9-0.9-1.4c-0.2-0.5-0.3-1.1-0.4-1.9c0-0.9,0-1.1,0-3.3s0-2.4,0-3.3
	c0-0.9,0.2-1.4,0.4-1.9c0.2-0.5,0.5-1,0.9-1.4c0.4-0.4,0.9-0.7,1.4-0.9C8.3,5.2,8.9,5.1,9.7,5z M16.2,6.5c-0.8,0-1.1,0-3.2,0
	s-2.4,0-3.2,0C9,6.5,8.6,6.7,8.3,6.8C7.9,6.9,7.6,7.1,7.4,7.4C7.1,7.6,6.9,7.9,6.8,8.3C6.7,8.6,6.5,9,6.5,9.8c0,0.8,0,1.1,0,3.2
	s0,2.4,0,3.2c0,0.8,0.2,1.2,0.3,1.5c0.1,0.4,0.3,0.6,0.6,0.9c0.3,0.3,0.5,0.5,0.9,0.6c0.3,0.1,0.7,0.2,1.5,0.3c0.8,0,1.1,0,3.2,0
	s2.4,0,3.2,0c0.8,0,1.2-0.2,1.5-0.3c0.4-0.1,0.6-0.3,0.9-0.6c0.3-0.3,0.5-0.5,0.6-0.9c0.1-0.3,0.2-0.7,0.3-1.5c0-0.8,0-1.1,0-3.2
	s0-2.4,0-3.2c0-0.8-0.2-1.2-0.3-1.5c-0.1-0.4-0.3-0.6-0.6-0.9c-0.3-0.3-0.5-0.5-0.9-0.6C17.4,6.7,17,6.5,16.2,6.5z M10.3,13
	c0,1.5,1.2,2.7,2.7,2.7s2.7-1.2,2.7-2.7s-1.2-2.7-2.7-2.7S10.3,11.5,10.3,13z M8.9,13c0-2.3,1.8-4.1,4.1-4.1s4.1,1.8,4.1,4.1
	s-1.8,4.1-4.1,4.1S8.9,15.3,8.9,13z M18.2,8.7c0,0.5-0.4,1-1,1c-0.5,0-1-0.4-1-1s0.4-1,1-1C17.8,7.8,18.2,8.2,18.2,8.7z"/>
</svg>
