<?xml version="1.0" encoding="utf-8"?>
<!-- Generator: Adobe Illustrator 25.2.3, SVG Export Plug-In . SVG Version: 6.00 Build 0)  -->
<svg version="1.1" id="Layer_1" xmlns="http://www.w3.org/2000/svg" xmlns:xlink="http://www.w3.org/1999/xlink" x="0px" y="0px"
	 width="26px" height="26px" viewBox="0 0 26 26" style="enable-background:new 0 0 26 26;" xml:space="preserve">
<style type="text/css">
	.st0{fill-rule:evenodd;clip-rule:evenodd;fill:#4A4AF4;}
</style>
<path class="st0" d="M20.3,19.1v-5.1c0-2.7-1.5-4-3.4-4c-1.6,0-2.3,0.9-2.7,1.5v-1.3h-2.9c0,0.8,0,8.9,0,8.9h2.9v-4.9
	c0-0.3,0-0.5,0.1-0.7c0.2-0.5,0.7-1.1,1.5-1.1c1.1,0,1.5,0.8,1.5,2v4.7L20.3,19.1z M8.2,9.1c1,0,1.7-0.7,1.7-1.5
	C9.9,6.7,9.2,6,8.2,6S6.6,6.7,6.6,7.5C6.6,8.4,7.2,9.1,8.2,9.1L8.2,9.1z M13,26C5.8,26,0,20.2,0,13C0,5.8,5.8,0,13,0
	c7.2,0,13,5.8,13,13C26,20.2,20.2,26,13,26z M9.7,19.1v-8.9H6.7v8.9H9.7z"/>
</svg>
