<?xml version="1.0" encoding="utf-8"?>
<!-- Generator: Adobe Illustrator 25.2.3, SVG Export Plug-In . SVG Version: 6.00 Build 0)  -->
<svg version="1.1" id="Layer_1" xmlns="http://www.w3.org/2000/svg" xmlns:xlink="http://www.w3.org/1999/xlink" x="0px" y="0px"
	 width="26px" height="26px" viewBox="0 0 26 26" style="enable-background:new 0 0 26 26;" xml:space="preserve">
<style type="text/css">
	.st0{fill:#4A4AF4;}
</style>
<path class="st0" d="M13,0C5.8,0,0,5.8,0,13c0,5.5,3.4,10.2,8.3,12.1c-0.1-1-0.2-2.6,0-3.7c0.2-1,1.5-6.5,1.5-6.5S9.4,14.1,9.4,13
	c0-1.8,1-3.2,2.4-3.2c1.1,0,1.6,0.8,1.6,1.8c0,1.1-0.7,2.8-1.1,4.3c-0.3,1.3,0.7,2.4,1.9,2.4c2.3,0,4.1-2.4,4.1-5.9
	c0-3.1-2.2-5.3-5.4-5.3c-3.7,0-5.9,2.8-5.9,5.6c0,1.1,0.4,2.3,1,3c0.1,0.1,0.1,0.2,0.1,0.4c-0.1,0.4-0.3,1.3-0.4,1.5
	c-0.1,0.2-0.2,0.3-0.4,0.2c-1.6-0.8-2.6-3.1-2.6-5c0-4.1,3-7.9,8.6-7.9c4.5,0,8,3.2,8,7.5c0,4.5-2.8,8.1-6.7,8.1
	c-1.3,0-2.6-0.7-3-1.5c0,0-0.7,2.5-0.8,3.1c-0.3,1.1-1.1,2.5-1.6,3.4c1.2,0.4,2.5,0.6,3.9,0.6c7.2,0,13-5.8,13-13
	C26,5.8,20.2,0,13,0z"/>
</svg>
