<?xml version="1.0" encoding="utf-8"?>
<!-- Generator: Adobe Illustrator 25.2.3, SVG Export Plug-In . SVG Version: 6.00 Build 0)  -->
<svg version="1.1" id="Layer_1" xmlns="http://www.w3.org/2000/svg" xmlns:xlink="http://www.w3.org/1999/xlink" x="0px" y="0px"
	 width="26px" height="26px" viewBox="0 0 26 26" style="enable-background:new 0 0 26 26;" xml:space="preserve">
<style type="text/css">
	.st0{fill-rule:evenodd;clip-rule:evenodd;fill:#4A4AF4;}
</style>
<path class="st0" d="M13,26c7.2,0,13-5.8,13-13S20.2,0,13,0C5.8,0,0,5.8,0,13S5.8,26,13,26z M19.5,10.9c0,4.1-3.1,8.9-8.9,8.9
	c-1.8,0-3.4-0.5-4.8-1.4c0.2,0,0.5,0,0.7,0c1.5,0,2.8-0.5,3.9-1.3c-1.4,0-2.5-0.9-2.9-2.2C7.7,15,7.9,15,8.1,15c0.3,0,0.6,0,0.8-0.1
	c-1.4-0.3-2.5-1.6-2.5-3.1c0,0,0,0,0,0c0.4,0.2,0.9,0.4,1.4,0.4C7,11.6,6.4,10.7,6.4,9.6C6.4,9,6.6,8.5,6.9,8
	c1.5,1.9,3.8,3.1,6.4,3.3c-0.1-0.2-0.1-0.5-0.1-0.7c0-1.7,1.4-3.1,3.1-3.1c0.9,0,1.7,0.4,2.3,1c0.7-0.1,1.4-0.4,2-0.8
	c-0.2,0.7-0.7,1.3-1.4,1.7c0.6-0.1,1.2-0.2,1.8-0.5c-0.4,0.6-0.9,1.2-1.6,1.6C19.5,10.6,19.5,10.8,19.5,10.9z"/>
</svg>
